<?xml version="1.0" standalone="no"?><!DOCTYPE svg PUBLIC "-//W3C//DTD SVG 1.1//EN" "http://www.w3.org/Graphics/SVG/1.1/DTD/svg11.dtd"><svg t="1510299061084" class="icon" style="" viewBox="0 0 1024 1024" version="1.1" xmlns="http://www.w3.org/2000/svg" p-id="1817" xmlns:xlink="http://www.w3.org/1999/xlink" width="200" height="200"><defs><style type="text/css"></style></defs><path d="M873.714286 884l-3.428572 3.428571q-64.571429 64.571429-148 100-88 36.571429-181.142857 36.571429-94.285714 0-181.142857-36.571429-84.571429-36-148-100-64.571429-64-100-147.428571-24-58.857143-30.857143-108-2.285714-16 27.428572-20.571429 29.142857-4.571429 32 11.428572 0.571429 0.571429 0.571428 2.285714 10.285714 51.428571 26.285714 90.857143 28.571429 70.857143 86.857143 129.142857 56 56 129.142857 86.857143 75.428571 32 157.714286 32 81.714286 0 157.714286-32 73.142857-31.428571 128.571428-86.857143l3.428572-3.428571q5.714286-5.714286 14.285714-3.428572 6.857143 1.714286 18.857143 12.571429 20.571429 21.142857 9.714286 33.142857zM604 532.571429l-37.714286 37.714285 36 36q12 12-4 28-9.714286 9.714286-18.285714 9.714286-5.714286 0-10.857143-5.714286l-35.428571-34.857143-37.714286 37.714286q-2.857143 2.857143-8.571429 2.857143-8.571429 0-17.714285-9.142857l-1.142857-1.142857q-10.285714-8.571429-10.285715-16.571429 0-4 4.571429-9.714286l37.714286-37.142857-37.714286-37.714285q-9.142857-9.142857 8-25.714286 10.285714-10.285714 17.714286-10.285714 3.428571 0 7.428571 2.857142l37.142857 37.714286 37.142857-37.142857q10.285714-9.714286 27.428572 7.428571 15.428571 15.428571 6.285714 25.142858z m269.142857 32.571428q0 67.428571-26.285714 130.285714-25.714286 60-72 106.285715-45.714286 45.714286-106.857143 72t-130.285714 26.285714-130.285715-26.285714-106.857142-72q-46.857143-46.857143-71.428572-106.285715-8.571429-18.857143-8.571428-22.857142h-0.571429q-5.142857-15.428571 24.571429-25.142858 28.571429-9.142857 34.285714 6.857143 21.142857 56.571429 55.428571 95.428572h0.571429V554.857143q1.714286-77.714286 58.285714-132.571429 60-58.857143 144.571429-58.857143 84 0 143.428571 58.857143t59.428572 142.285715q0 84-59.714286 143.428571T537.714286 767.428571q-33.142857 0-64-9.142857-16-6.285714-7.428572-34.857143 9.142857-29.142857 25.142857-24.571428l8 1.714286q8 1.714286 18.857143 3.428571t17.142857 1.714286q59.428571 0 100.571429-40.857143t41.142857-99.714286q0-57.714286-41.142857-97.714286-40.571429-40.571429-100-40.571428-61.142857 0-101.714286 45.714286-36.571429 41.142857-36.571428 91.428571v236q62.857143 38.285714 138.285714 38.285714 54.857143 0 105.714286-20.857143t89.142857-59.142857 59.142857-88.571428 20.857143-104.571429q0-113.142857-80.571429-193.714286-80-80-193.714285-80-114.285714 0-194.285715 80-30.285714 30.285714-44 49.714286l-1.142857 1.142857q-4.571429 6.285714-7.428571 8.857143t-12.285715 5.428572-22-1.714286q-12-2.857143-20.857142-9.428572T225.714286 410.285714V21.714286q0-8.571429 6-15.142857T247.428571 0h501.142858q17.142857 0 17.142857 31.428571t-17.142857 31.428572H285.142857v276h0.571429q22.857143-24 58.285714-48t61.714286-34.857143q62.285714-26.285714 132-26.285714 69.142857 0 130.285714 26.285714t106.857143 72q46.285714 46.285714 72 106.285714 26.285714 64 26.285714 130.857143z m-17.714286-332q5.142857 4.571429 5.142858 10.285714t-3.142858 10.285715-9.428571 12q-14.857143 14.857143-22.285714 14.857143-5.142857 0-9.142857-4-60.571429-52-118.285715-76-73.142857-32-157.714285-32-76 0-149.714286 28-15.428571 5.714286-25.714286-21.142858-5.142857-14.285714-4.571428-21.714285 1.714286-9.142857 9.142857-11.428572 74.285714-32.571429 170.857143-32.571428 93.714286 0 180.571428 36.571428 78.285714 33.142857 134.285714 86.857143z" p-id="1818"></path></svg>