<?xml version="1.0" standalone="no"?><!DOCTYPE svg PUBLIC "-//W3C//DTD SVG 1.1//EN" "http://www.w3.org/Graphics/SVG/1.1/DTD/svg11.dtd"><svg t="1510887455766" class="icon" style="" viewBox="0 0 1024 1024" version="1.1" xmlns="http://www.w3.org/2000/svg" p-id="6049" xmlns:xlink="http://www.w3.org/1999/xlink" width="200" height="200"><defs><style type="text/css"></style></defs><path d="M894.2933333333333 69.97333333333336h-109.22666666666667v54.61333333333334h109.22666666666667c17.92 0 32.85333333333333 14.933333333333334 32.85333333333333 32.85333333333333v136.96h-830.2933333333333v-136.96c0-17.92 14.933333333333334-32.85333333333333 32.85333333333333-32.85333333333333h109.22666666666667v-54.61333333333334h-109.22666666666667c-48.21333333333334 0-87.46666666666667 39.25333333333333-87.46666666666667 87.46666666666667v736c0 48.21333333333334 39.25333333333333 87.46666666666667 87.46666666666667 87.46666666666667h764.5866666666666c48.21333333333334 0 87.46666666666667-39.25333333333333 87.46666666666667-87.46666666666667v-736c0-48.21333333333334-39.25333333333333-87.46666666666667-87.46666666666667-87.46666666666667z m0 856.3199999999999h-764.5866666666666c-17.92 0-32.85333333333333-14.933333333333334-32.85333333333333-32.85333333333333v-544.4266666666666h830.2933333333333v544.4266666666666c0 18.346666666666664-14.933333333333334 32.85333333333333-32.85333333333333 32.85333333333333z" p-id="6050"></path><path d="M342.61333333333334 183.4666666666667c15.36 0 27.30666666666667-11.946666666666665 27.30666666666667-27.30666666666667v-85.76c0-15.36-11.946666666666665-27.30666666666667-27.30666666666667-27.30666666666667s-27.30666666666667 11.946666666666665-27.30666666666667 27.30666666666667v85.76c0 15.36 12.8 27.30666666666667 27.30666666666667 27.30666666666667z m169.38666666666668 0c15.36 0 27.30666666666667-11.946666666666665 27.30666666666667-27.30666666666667v-85.76c0-15.36-11.946666666666665-27.30666666666667-27.30666666666667-27.30666666666667s-27.30666666666667 11.946666666666665-27.30666666666667 27.30666666666667v85.76c0 15.36 11.946666666666665 27.30666666666667 27.30666666666667 27.30666666666667z m169.38666666666668 0c15.36 0 27.30666666666667-11.946666666666665 27.30666666666667-27.30666666666667v-85.76c0-15.36-11.946666666666665-27.30666666666667-27.30666666666667-27.30666666666667s-27.30666666666667 11.946666666666665-27.30666666666667 27.30666666666667v85.76c0 15.36 11.946666666666665 27.30666666666667 27.30666666666667 27.30666666666667z" p-id="6051"></path><path d="M207.7866666666667 453.5466666666666h434.77333333333337v53.333333333333336h-434.77333333333337z" p-id="6052"></path></svg>