<?xml version="1.0" standalone="no"?><!DOCTYPE svg PUBLIC "-//W3C//DTD SVG 1.1//EN" "http://www.w3.org/Graphics/SVG/1.1/DTD/svg11.dtd"><svg t="1510887451297" class="icon" style="" viewBox="0 0 1024 1024" version="1.1" xmlns="http://www.w3.org/2000/svg" p-id="5940" xmlns:xlink="http://www.w3.org/1999/xlink" width="200" height="200"><defs><style type="text/css"></style></defs><path d="M261.12 386.56h71.68v71.68h-71.68v-71.68z m72.192-116.224c-25.088 0-45.056-19.968-45.056-45.568v-151.04c0-25.088 20.48-45.568 45.056-45.568 25.088 0 45.568 20.48 45.568 45.568v151.04c0 25.088-20.48 45.568-45.568 45.568z m71.168-134.656h215.04v71.68h-215.04v-71.68z m0 250.88h71.68v71.68h-71.68v-71.68z m143.36 0h71.68v71.68h-71.68v-71.68z m142.848-116.224c-25.088 0-45.568-19.968-45.568-45.568v-151.04c0-25.088 20.48-45.568 45.568-45.568s45.056 20.48 45.056 45.568v151.04c0.512 25.088-19.968 45.568-45.056 45.568z m215.552 725.504h-788.48c-50.176 0-71.68-21.504-71.68-71.68v-714.752c0-50.176 21.504-73.728 71.68-73.728h143.36v71.68h-143.36v716.8h788.48v-716.8h-143.36v-71.68h143.36c50.176 0 71.68 23.552 71.68 73.728v714.752c0 50.176-21.504 71.68-71.68 71.68z" p-id="5941"></path></svg>